<?xml version="1.0" encoding="UTF-8"?>
<svg id="Layer_1" data-name="Layer 1" xmlns="http://www.w3.org/2000/svg" viewBox="0 0 1185.16 249.93">
  <defs>
    <style>
      .cls-1 {
        fill: #221f20;
      }
    </style>
  </defs>
  <path class="cls-1" d="M7.71,244.9c-4.25,0-7.71-3.46-7.71-7.71V53.82c0-4.25,3.46-7.71,7.71-7.71H57.24c25.97,0,45.58,3.87,58.29,11.51,12.61,7.58,22.19,19.15,28.47,34.39,6.23,15.13,9.39,33.27,9.39,53.93,0,19.59-3.33,37.05-9.91,51.9-6.62,14.94-16.18,26.62-28.4,34.71-12.37,8.2-31.83,12.35-57.84,12.35H7.71ZM47.67,67.73c-7.63,0-13.84,6.21-13.84,13.84v126.02c0,7.63,6.21,13.84,13.84,13.84h4.84c20.15,0,34.62-3,43.03-8.92,8.56-6.03,14.78-14.54,18.5-25.32,3.75-10.89,5.66-26.11,5.66-45.21s-2.22-33.39-6.6-43.44c-4.34-9.96-10.6-17.69-18.62-22.98-7.87-5.2-21.15-7.83-39.46-7.83h-7.35Z"/>
  <path class="cls-1" d="M346.41,249.93c-28.37,0-51.09-9.92-68.15-29.75-17.07-19.83-25.6-44.8-25.6-74.9s8.53-55.18,25.6-74.9c17.06-19.72,39.78-29.58,68.15-29.58s50.88,9.86,67.89,29.58c17.01,19.72,25.51,44.69,25.51,74.9s-8.51,55.06-25.51,74.9c-17.01,19.83-39.64,29.75-67.89,29.75Zm0-27.5c17.53,0,31.51-6.86,41.94-20.58,10.43-13.72,15.65-32.57,15.65-56.56s-5.22-42.66-15.65-56.39c-10.44-13.72-24.42-20.58-41.94-20.58s-31.86,6.86-42.29,20.58c-10.44,13.72-15.65,32.52-15.65,56.39s5.22,42.84,15.65,56.56c10.43,13.72,24.53,20.58,42.29,20.58Z"/>
  <path class="cls-1" d="M455.58,234.15V56.59c0-5.66,4.59-10.25,10.25-10.25h12.54c5.66,0,10.25,4.59,10.25,10.25v3.34c0,9.15,11.08,13.7,17.52,7.2,5.61-5.67,11.56-10.4,17.85-14.22,13.32-8.07,28.11-12.11,44.37-12.11,9.38,0,18.77,1.13,28.16,3.39,4.59,1.11,7.82,5.24,7.82,9.96v53.37c0,5.66-4.59,10.25-10.25,10.25h-11.33c-5.66,0-10.25-4.59-10.25-10.25v-26.08c0-5.31-4.06-9.79-9.36-10.21-1.4-.11-2.66-.17-3.78-.17-12.23,0-24.27,4.84-36.15,14.53-11.39,9.28-22.45,23.07-33.2,41.36-.92,1.56-1.39,3.36-1.39,5.17v102.01c0,5.66-4.59,10.25-10.25,10.25h-12.54c-5.66,0-10.25-4.59-10.25-10.25Z"/>
  <path class="cls-1" d="M984.42,52.23c-6.24-7.5-13.93-11.3-22.86-11.3-7.97,0-15.09,2.33-21.18,6.92-5.89,4.44-11.66,10.48-17.17,17.94-3.8,5.14-7.22,11.43-10.19,18.71-.11-13.59-3.16-24.28-9.06-31.8-6.13-7.81-14.29-11.77-24.25-11.77-8.38,0-16.7,3.8-24.72,11.29-6.75,6.3-14.02,17.08-21.61,32.03v-25.93c0-6.6-5.37-11.97-11.97-11.97h-8.27c-6.6,0-11.97,5.37-11.97,11.97V232.21c0,6.67,5.43,12.1,12.1,12.1h8.01c6.67,0,12.1-5.43,12.1-12.1v-101.51c5.98-15.79,12.37-28.89,18.99-38.93,6.36-9.65,12.26-14.54,17.51-14.54,2.09,0,4.68,1.35,7.69,4,1.65,1.46,4.42,7.14,4.42,28.78v122.21c0,6.67,5.43,12.1,12.1,12.1h6.83c6.67,0,12.1-5.43,12.1-12.1v-97.15c6.98-20.79,13.92-35.86,20.62-44.82,6.47-8.64,12.44-13.03,17.75-13.03,1.97,0,3.77,.82,5.5,2.5,1.78,1.73,2.98,4.42,3.59,7.99,.66,3.89,.99,11.33,.99,22.13v122.38c0,6.67,5.43,12.1,12.1,12.1h8.01c6.67,0,12.1-5.43,12.1-12.1V95.77c0-21.8-3.03-36.04-9.27-43.53Z"/>
  <path class="cls-1" d="M771.99,46.35h-22.44c-3.8-.35-6.69-.63-8.65-.86-12.57-1.39-22.02-2.09-28.37-2.09-21.56,0-39.69,5.26-54.4,15.75-14.7,10.49-26.41,24.73-35.11,42.72-8.71,17.99-13.07,38.46-13.07,61.41,0,29.16,6.57,50.91,19.72,65.2,13.15,14.31,28.03,21.46,44.63,21.46,11.77,0,24.71-4.21,38.83-12.63l36.69-33.88v30.39c0,5.86,4.75,10.61,10.61,10.61h11.64c5.81,0,10.51-4.71,10.51-10.51V56.95c0-5.86-4.75-10.61-10.61-10.61Zm-22.44,111.5c0,1.85-.47,3.68-1.4,5.28-9.56,16.49-20.25,29.68-32.07,39.58-12.4,10.37-23.73,15.57-33.98,15.57-9.46,0-17.87-4.99-25.25-14.96-7.38-9.97-11.07-24.77-11.07-44.37,0-27.09,6.77-48.52,20.32-64.26,13.54-15.74,30.47-23.61,50.76-23.61,7.6,0,15.71,.9,24.31,2.69,4.89,1.02,8.37,5.37,8.37,10.37v73.71Z"/>
  <path class="cls-1" d="M1174.55,46.35h-22.44c-3.8-.35-6.69-.63-8.65-.86-12.57-1.39-22.02-2.09-28.37-2.09-21.56,0-39.69,5.26-54.4,15.75-14.7,10.49-26.41,24.73-35.11,42.72-8.71,17.99-13.07,38.46-13.07,61.41,0,29.16,6.57,50.91,19.72,65.2,13.15,14.31,28.03,21.46,44.63,21.46,11.77,0,24.71-4.21,38.83-12.63l36.69-33.88v30.39c0,5.86,4.75,10.61,10.61,10.61h11.64c5.81,0,10.51-4.71,10.51-10.51V56.95c0-5.86-4.75-10.61-10.61-10.61Zm-22.44,111.5c0,1.85-.47,3.68-1.4,5.28-9.56,16.49-20.25,29.68-32.07,39.58-12.4,10.37-23.73,15.57-33.98,15.57-9.46,0-17.87-4.99-25.25-14.96-7.38-9.97-11.07-24.77-11.07-44.37,0-27.09,6.77-48.52,20.32-64.26,13.54-15.74,30.47-23.61,50.76-23.61,7.6,0,15.71,.9,24.31,2.69,4.89,1.02,8.37,5.37,8.37,10.37v73.71Z"/>
  <g>
    <path class="cls-1" d="M148.97,56.85v6.5c0,5.8,4.7,10.5,10.5,10.5h34c5.8,0,10.5,4.7,10.5,10.5V233.89c0,5.8,4.7,10.5,10.5,10.5h12.03c5.8,0,10.5-4.7,10.5-10.5V56.85c0-5.8-4.7-10.5-10.5-10.5h-67.03c-5.8,0-10.5,4.7-10.5,10.5Z"/>
    <rect class="cls-1" x="203.64" width="33.38" height="33.38" rx="8.22" ry="8.22"/>
  </g>
</svg>