<?xml version="1.0" encoding="UTF-8"?>
<svg id="Layer_1" data-name="Layer 1" xmlns="http://www.w3.org/2000/svg" viewBox="0 0 581.5 215.91">
  <path d="M125.3,76.62c-6.08-7.49-13.68-13.5-22.59-17.86-8.93-4.36-19.29-6.57-30.8-6.57s-21.87,2.21-30.8,6.57c-8.91,4.36-16.51,10.37-22.59,17.86-6.06,7.47-10.71,16.21-13.83,25.98-3.11,9.72-4.69,20.25-4.69,31.27s1.58,21.61,4.69,31.42c3.12,9.87,7.78,18.62,13.84,25.99,6.08,7.4,13.68,13.36,22.59,17.71,8.92,4.36,19.29,6.57,30.8,6.57s21.87-2.21,30.8-6.57c8.91-4.35,16.51-10.31,22.59-17.71,6.05-7.36,10.71-16.11,13.84-25.99,3.11-9.83,4.68-20.4,4.68-31.42s-1.58-21.54-4.69-31.27c-3.13-9.78-7.78-18.52-13.83-25.98Zm3.37,57.25c0,8.85-1.27,17.49-3.77,25.67-2.49,8.14-6.18,15.46-10.96,21.78-4.75,6.26-10.71,11.32-17.74,15.02-7,3.69-15.17,5.56-24.3,5.56s-17.3-1.87-24.3-5.56c-7.03-3.7-13-8.76-17.74-15.02-4.79-6.32-8.47-13.64-10.96-21.78-2.5-8.17-3.77-16.81-3.77-25.67s1.27-17.5,3.77-25.67c2.49-8.14,6.17-15.47,10.96-21.78,4.74-6.26,10.71-11.32,17.74-15.02,6.99-3.69,15.17-5.56,24.3-5.56s17.3,1.87,24.3,5.56c7.03,3.7,12.99,8.76,17.74,15.02,4.78,6.31,8.47,13.64,10.96,21.78,2.5,8.19,3.77,16.83,3.77,25.67Z"/>
  <polygon points="154.11 0 152.17 0 152.17 1.94 152.17 213.62 152.17 215.56 154.11 215.56 165.38 215.56 167.32 215.56 167.32 213.62 167.32 1.94 167.32 0 165.38 0 154.11 0"/>
  <polygon points="319.57 59.3 318.22 59.3 317.75 60.56 267.64 195.93 214.05 60.52 213.56 59.3 212.25 59.3 199.2 59.3 196.33 59.3 197.4 61.96 258.77 214.35 259.26 215.56 260.57 215.56 274.51 215.56 275.85 215.56 276.32 214.31 333.84 61.92 334.83 59.3 332.02 59.3 319.57 59.3"/>
  <polygon points="342.22 59.3 340.28 59.3 340.28 61.23 340.28 213.62 340.28 215.56 342.22 215.56 353.49 215.56 355.43 215.56 355.43 213.62 355.43 61.23 355.43 59.3 353.49 59.3 342.22 59.3"/>
  <path d="M577.11,99.69c-2.93-9.18-7.28-17.37-12.94-24.35-5.69-7-12.84-12.62-21.27-16.68-8.43-4.06-18.24-6.12-29.15-6.12-11.92,0-22.45,2.32-31.28,6.89-4.64,2.4-8.9,5.26-12.75,8.53-4.1-3.64-9.39-6.62-15.74-8.84-6.41-2.24-14.26-3.37-23.32-3.37-6.07,0-12.13,.82-18.01,2.44-5.9,1.63-11.42,4.11-16.41,7.36-4.99,3.26-9.43,7.23-13.19,11.81-2.14,2.6-4.01,5.43-5.61,8.47v-26.52h-15.15V215.56h15.15v-84.36c0-9.06,1.22-17.49,3.62-25.06,2.38-7.52,5.9-14.08,10.46-19.5,4.54-5.39,10.1-9.66,16.54-12.69,6.43-3.03,13.93-4.56,22.3-4.56,9.85,0,17.62,1.79,23.11,5.32,2.14,1.38,4.07,2.87,5.8,4.47-5.33,7.25-9.42,15.64-12.16,24.99-2.9,9.91-4.38,20.42-4.38,31.23s1.42,21.82,4.23,31.52c2.82,9.79,7.18,18.39,12.95,25.58,3.42,4.25,7.37,7.99,11.8,11.2v11.85h1.94s11.27,0,11.27,0h1.94s0-1.94,0-1.94v-1.82c7.44,2.71,15.85,4.1,25.12,4.1,18.77,0,34.1-4.94,45.58-14.69,11.46-9.74,19.01-23.88,22.44-42.03l.43-2.3h-15.14l-.35,1.49c-3.27,13.78-9.27,24.66-17.84,32.36-8.51,7.64-20.27,11.51-34.97,11.51-8.97,0-16.93-1.73-23.65-5.13-.56-.28-1.07-.63-1.62-.93v-58.55h94.36v-1.94c0-.78,.05-1.78,.14-2.96,.1-1.38,.15-2.54,.15-3.56,0-10.42-1.48-20.34-4.39-29.49Zm-105.41,37.96v45.63s-.07-.08-.11-.12c-4.49-5.9-7.93-12.87-10.23-20.72-2.3-7.83-3.47-16.17-3.49-24.79h13.83Zm-3.69-45.51c1.45,3.6,2.42,7.31,2.81,11.1,.58,5.64,.88,10.36,.88,14.03v6.71h-13.36c.69-6.98,2.19-13.89,4.48-20.56,1.39-4.04,3.15-7.79,5.19-11.29Zm18.53,16c-.2-4.34-.82-8.88-1.82-13.52-1.02-4.69-2.73-9.39-5.06-13.96-.28-.55-.62-1.08-.93-1.62,3.46-3.04,7.32-5.71,11.65-7.87,6.64-3.31,14.45-4.98,23.21-4.98,8.17,0,15.52,1.63,21.87,4.83,6.37,3.23,11.86,7.6,16.33,13,4.47,5.41,7.9,11.78,10.2,18.92,2.12,6.6,3.44,13.67,3.95,21.04h-79.1v-4.64c0-3.15-.1-6.81-.3-11.21Z"/>
  <polygon points="177.62 59.3 175.68 59.3 175.68 61.23 175.68 213.62 175.68 215.56 177.62 215.56 188.89 215.56 190.83 215.56 190.83 213.62 190.83 61.23 190.83 59.3 188.89 59.3 177.62 59.3"/>
  <polygon points="188.75 51.21 190.69 51.21 190.69 49.27 190.69 37.92 190.69 35.98 188.75 35.98 177.83 35.98 175.89 35.98 175.89 37.92 175.89 49.27 175.89 51.21 177.83 51.21 188.75 51.21"/>
  <polygon points="353.06 51.21 354.99 51.21 354.99 49.27 354.99 37.92 354.99 35.98 353.06 35.98 342.14 35.98 340.2 35.98 340.2 37.92 340.2 49.27 340.2 51.21 342.14 51.21 353.06 51.21"/>
</svg>